<svg xmlns="http://www.w3.org/2000/svg" viewBox="0 0 500 120"><defs><style>.cls-2{fill:#a8c023}.cls-3{opacity:.24}.cls-4{opacity:.15}</style></defs><path fill="#3a3a3f" d="M0 0h500v120H0z"/><path class="cls-2" d="M144.08 25.54h7.46l-28.27 63.28h-7.45zM186.27 25.54h7.45l-28.26 63.28H158zM233.8 82a57.34 57.34 0 01-9.77.85 23.11 23.11 0 01-9.21-1.55 10.2 10.2 0 01-5.17-4.78 18.61 18.61 0 01-1.65-8.44v-17h-9.35v-6.2H208V33.63h7.45v11.25h17v6.18h-17v16.67q0 4.47 2.18 6.45c1.45 1.32 3.82 2 7.1 2 1.08 0 2.23-.06 3.46-.18s2.82-.29 4.77-.53zM251 80.58a14.32 14.32 0 01-5.58-6.58 25.75 25.75 0 01-1.91-10.46 25.78 25.78 0 011.91-10.46 14.32 14.32 0 015.58-6.64 18.21 18.21 0 0117.61 0 14.27 14.27 0 015.59 6.61 25.78 25.78 0 011.92 10.46A25.75 25.75 0 01274.21 74a14.27 14.27 0 01-5.59 6.61 18.21 18.21 0 01-17.61 0zm15.15-7.7q2.23-3.28 2.24-9.37c0-4-.75-7.18-2.24-9.37a7.76 7.76 0 00-12.69 0c-1.49 2.19-2.23 5.32-2.23 9.37s.74 7.18 2.23 9.37a7.76 7.76 0 0012.69 0zM317.19 29.41v52.73l-6.68.36-.63-6.12H309a6.2 6.2 0 01-3 4.81 12.83 12.83 0 01-6.93 1.66 14.25 14.25 0 01-8-2.2A13.68 13.68 0 01286 74.2a27.33 27.33 0 01-1.74-10.34A29.12 29.12 0 01286 53.21a14.18 14.18 0 015.09-6.73 13.89 13.89 0 018.07-2.31A11.27 11.27 0 01306.1 46a8 8 0 012.9 5.63h.7V29.41zm-7.45 40.78v-9q0-10.68-9.49-10.69a7.12 7.12 0 00-6.35 3.5q-2.23 3.48-2.23 9.88c0 4.17.73 7.33 2.18 9.46a7.32 7.32 0 006.47 3.2q9.42-.02 9.42-6.35zM335.39 80.58A14.27 14.27 0 01329.8 74a25.75 25.75 0 01-1.92-10.46 25.78 25.78 0 011.92-10.46 14.27 14.27 0 015.59-6.61 18.21 18.21 0 0117.61 0 14.32 14.32 0 015.59 6.61 25.78 25.78 0 011.91 10.46A25.75 25.75 0 01358.59 74a14.32 14.32 0 01-5.59 6.58 18.21 18.21 0 01-17.61 0zm15.15-7.7q2.23-3.28 2.23-9.37c0-4-.74-7.18-2.23-9.37a7.76 7.76 0 00-12.69 0c-1.49 2.19-2.24 5.32-2.24 9.37s.75 7.18 2.24 9.37a7.76 7.76 0 0012.69 0z"/><g class="cls-3"><path class="cls-2" d="M26.87 6.39h5L13 48.58H8zM55 6.39h5L41.12 48.58h-5zM86.68 44a38.17 38.17 0 01-6.51.56 15.37 15.37 0 01-6.14-1 6.81 6.81 0 01-3.45-3.19 12.4 12.4 0 01-1.1-5.62V23.41h-6.23v-4.13h6.23v-7.5h5v7.5h11.3v4.13H74.45v11.1a5.59 5.59 0 001.45 4.31q1.45 1.32 4.74 1.32 1.08 0 2.31-.12c.82-.08 1.87-.19 3.17-.35zM98.16 43.08a9.51 9.51 0 01-3.73-4.41 17.18 17.18 0 01-1.28-7 17.21 17.21 0 011.28-7 9.51 9.51 0 013.73-4.41 12.16 12.16 0 0111.74 0 9.62 9.62 0 013.73 4.41 17.22 17.22 0 011.27 7 17.19 17.19 0 01-1.27 7 9.62 9.62 0 01-3.73 4.41 12.16 12.16 0 01-11.74 0zm10.1-5.08a11.08 11.08 0 001.49-6.25 11.07 11.07 0 00-1.49-6.24 5.17 5.17 0 00-8.46 0 11 11 0 00-1.49 6.24A11 11 0 0099.8 38a5.18 5.18 0 008.46 0zM142.28 9v35.12l-4.46.24-.42-4.08h-.56a4.14 4.14 0 01-2 3.21 8.54 8.54 0 01-4.62 1.1 9.51 9.51 0 01-5.35-1.46 9.1 9.1 0 01-3.38-4.3 18.28 18.28 0 01-1.16-6.89 19.54 19.54 0 011.16-7.11 9.43 9.43 0 013.4-4.48 9.22 9.22 0 015.38-1.54 7.49 7.49 0 014.6 1.23 5.3 5.3 0 012 3.74h.47V9zm-5 27.19v-6Q137.31 23 131 23a4.73 4.73 0 00-4.23 2.32 12.23 12.23 0 00-1.49 6.59 11.28 11.28 0 001.45 6.3 4.89 4.89 0 004.27 2.16c4.21 0 6.31-1.37 6.31-4.21zM154.41 43.08a9.51 9.51 0 01-3.73-4.41 17.18 17.18 0 01-1.28-7 17.21 17.21 0 011.28-7 9.51 9.51 0 013.73-4.41 12.16 12.16 0 0111.74 0 9.62 9.62 0 013.73 4.41 17.22 17.22 0 011.27 7 17.19 17.19 0 01-1.27 7 9.62 9.62 0 01-3.73 4.41 12.16 12.16 0 01-11.74 0zm10.1-5.08a11.08 11.08 0 001.49-6.3 11.07 11.07 0 00-1.49-6.24 5.17 5.17 0 00-8.46 0 11 11 0 00-1.49 6.24 11 11 0 001.49 6.3 5.18 5.18 0 008.46 0z"/></g><g class="cls-3"><path class="cls-2" d="M352.1 75.08h5l-18.85 42.19h-5zM380.22 75.08h5l-18.84 42.19h-5zM411.91 112.72a38.2 38.2 0 01-6.52.56 15.4 15.4 0 01-6.14-1 6.77 6.77 0 01-3.44-3.18 12.35 12.35 0 01-1.1-5.63V92.1h-6.24V88h6.24v-7.5h5V88H411v4.1h-11.32v11.11a5.58 5.58 0 001.45 4.3q1.46 1.32 4.73 1.32 1.08 0 2.31-.12c.82-.07 1.88-.19 3.18-.35zM423.38 111.77a9.52 9.52 0 01-3.72-4.4 19.64 19.64 0 010-14 9.55 9.55 0 013.72-4.37 12.18 12.18 0 0111.75 0 9.55 9.55 0 013.72 4.41 19.64 19.64 0 010 14 9.52 9.52 0 01-3.72 4.4 12.18 12.18 0 01-11.75 0zm10.1-5.13a11 11 0 001.49-6.25 11 11 0 00-1.49-6.24 5.18 5.18 0 00-8.46 0 11.07 11.07 0 00-1.48 6.24 11.08 11.08 0 001.48 6.25 5.18 5.18 0 008.46 0zM467.5 77.66v35.16l-4.45.23-.42-4.08h-.56a4.12 4.12 0 01-2 3.21 8.53 8.53 0 01-4.61 1.1 9.47 9.47 0 01-5.36-1.46 9.14 9.14 0 01-3.37-4.3 18.09 18.09 0 01-1.16-6.89 19.27 19.27 0 011.16-7.1 9.35 9.35 0 013.4-4.49 9.21 9.21 0 015.37-1.54 7.53 7.53 0 014.61 1.23 5.3 5.3 0 012 3.74h.47V77.66zm-5 27.19v-6q0-7.12-6.33-7.13A4.75 4.75 0 00452 94a12.14 12.14 0 00-1.49 6.59q0 4.17 1.45 6.3a4.89 4.89 0 004.31 2.14q6.27.04 6.27-4.18zM479.63 111.77a9.52 9.52 0 01-3.72-4.4 19.64 19.64 0 010-14 9.55 9.55 0 013.72-4.37 12.18 12.18 0 0111.75 0 9.55 9.55 0 013.72 4.41 19.64 19.64 0 010 14 9.52 9.52 0 01-3.72 4.4 12.18 12.18 0 01-11.75 0zm10.1-5.13a11 11 0 001.49-6.25 11 11 0 00-1.49-6.24 5.18 5.18 0 00-8.46 0 11.07 11.07 0 00-1.48 6.24 11.08 11.08 0 001.48 6.25 5.18 5.18 0 008.46 0z"/></g><g class="cls-4"><path class="cls-2" d="M386.58 4.89h3.73l-14.14 31.64h-3.72zM407.67 4.89h3.73l-14.13 31.64h-3.73zM431.44 33.12a29.19 29.19 0 01-4.89.42 11.63 11.63 0 01-4.6-.77 5.09 5.09 0 01-2.59-2.39 9.33 9.33 0 01-.82-4.22v-8.51h-4.68v-3.09h4.68V8.93h3.72v5.63h8.48v3.09h-8.48V26a4.21 4.21 0 001.09 3.23 5.21 5.21 0 003.55 1c.54 0 1.12 0 1.73-.09S430 30 431 29.85zM440 32.41a7.2 7.2 0 01-2.79-3.31 12.86 12.86 0 01-1-5.23 12.89 12.89 0 011-5.23 7.17 7.17 0 012.79-3.3 9.15 9.15 0 018.81 0 7.11 7.11 0 012.79 3.3 12.89 12.89 0 011 5.23 12.86 12.86 0 01-1 5.23 7.14 7.14 0 01-2.79 3.31 9.15 9.15 0 01-8.81 0zm7.58-3.85a8.35 8.35 0 001.12-4.69 8.32 8.32 0 00-1.12-4.68 3.88 3.88 0 00-6.35 0 8.32 8.32 0 00-1.11 4.68 8.36 8.36 0 001.11 4.69 3.89 3.89 0 006.35 0zM473.13 6.82v26.37l-3.34.18-.31-3.06h-.42a3.11 3.11 0 01-1.5 2.4 6.35 6.35 0 01-3.46.83 7.15 7.15 0 01-4-1.1 6.83 6.83 0 01-2.53-3.22 13.67 13.67 0 01-.87-5.17 14.59 14.59 0 01.87-5.33 7.05 7.05 0 012.55-3.36 6.93 6.93 0 014-1.15 5.63 5.63 0 013.46.92 4 4 0 011.47 2.8h.35V6.82zm-3.72 20.39v-4.5q0-5.34-4.75-5.34a3.55 3.55 0 00-3.17 1.74 9.1 9.1 0 00-1.12 4.94 8.5 8.5 0 001.09 4.73 3.69 3.69 0 003.24 1.6q4.71 0 4.71-3.17zM482.23 32.41a7.14 7.14 0 01-2.79-3.31 12.86 12.86 0 01-1-5.23 12.89 12.89 0 011-5.23 7.11 7.11 0 012.79-3.3 9.15 9.15 0 018.81 0 7.17 7.17 0 012.79 3.3 12.89 12.89 0 011 5.23 12.86 12.86 0 01-1 5.23 7.2 7.2 0 01-2.83 3.31 9.15 9.15 0 01-8.81 0zm7.58-3.85a8.36 8.36 0 001.11-4.69 8.32 8.32 0 00-1.11-4.68 3.88 3.88 0 00-6.35 0 8.32 8.32 0 00-1.12 4.68 8.35 8.35 0 001.12 4.69 3.89 3.89 0 006.35 0z"/></g><g class="cls-4"><path class="cls-2" d="M18.93 84.52h3.72L8.52 116.16H4.79zM40 84.52h3.73l-14.12 31.64h-3.72zM63.79 112.75a29.28 29.28 0 01-4.89.42 11.52 11.52 0 01-4.61-.78 5.07 5.07 0 01-2.58-2.39 9.24 9.24 0 01-.83-4.21v-8.51h-4.67v-3.1h4.67v-5.62h3.73v5.62h8.47v3.1h-8.47v8.33a4.15 4.15 0 001.09 3.22 5.16 5.16 0 003.55 1c.54 0 1.12 0 1.73-.09l2.38-.26zM72.39 112a7.06 7.06 0 01-2.79-3.3 14.73 14.73 0 010-10.46A7.06 7.06 0 0172.39 95a9.08 9.08 0 018.81 0 7.12 7.12 0 012.8 3.27 14.73 14.73 0 010 10.46 7.12 7.12 0 01-2.8 3.27 9.08 9.08 0 01-8.81 0zm7.61-3.82a10.42 10.42 0 000-9.36 3.88 3.88 0 00-6.35 0 10.42 10.42 0 000 9.36 3.88 3.88 0 006.35 0zM105.48 86.45v26.37l-3.34.17-.31-3.06h-.43a3.07 3.07 0 01-1.49 2.41 6.44 6.44 0 01-3.46.83 7.15 7.15 0 01-4-1.1 6.81 6.81 0 01-2.53-3.23 13.61 13.61 0 01-.87-5.16 14.59 14.59 0 01.87-5.33A7.08 7.08 0 0192.45 95a7 7 0 014-1.15 5.7 5.7 0 013.46.92 4 4 0 011.46 2.81h.36V86.45zm-3.72 20.39v-4.5c0-3.56-1.59-5.34-4.75-5.34a3.55 3.55 0 00-3.17 1.74 9.08 9.08 0 00-1.12 4.94 8.36 8.36 0 001.09 4.72A3.65 3.65 0 0097 110q4.76 0 4.76-3.16zM114.58 112a7.08 7.08 0 01-2.8-3.3 14.87 14.87 0 010-10.46 7.08 7.08 0 012.8-3.3 9.08 9.08 0 018.81 0 7.12 7.12 0 012.79 3.3 14.73 14.73 0 010 10.46 7.12 7.12 0 01-2.79 3.3 9.08 9.08 0 01-8.81 0zm7.57-3.85a10.34 10.34 0 000-9.36 3.87 3.87 0 00-6.34 0 10.34 10.34 0 000 9.36 3.87 3.87 0 006.34 0z"/></g></svg>