<svg xmlns="http://www.w3.org/2000/svg" viewBox="0 0 500 120"><defs><style>.cls-1{fill:#ae6118;}.cls-2{fill:#e41f1f;}.cls-3{fill:#f8d42d;}.cls-4{fill:#007229;}.cls-5{fill:#e899a8;}.cls-6{fill:#686e72;}.cls-7{fill:#893267;}.cls-8{fill:#0450a1;}.cls-9{fill:#009fe0;}.cls-10{fill:#70c3ce;}.cls-11{fill:#e86a10;}.cls-12,.cls-13{fill:#3a3a3f;}.cls-12{opacity:0.75;}.cls-14,.cls-15{fill:none;}.cls-15,.cls-17{stroke:#fff;stroke-miterlimit:10;}.cls-15{stroke-width:12.1px;}.cls-16,.cls-17{fill:#fff;}.cls-17{stroke-width:2.42px;}</style></defs><title>Tube Alert</title><g id="Layer_2" data-name="Layer 2"><path class="cls-1" d="M0 0h500v120H0z"/><path class="cls-2" d="M0 10h500v110H0z"/><path class="cls-3" d="M0 20h500v100H0z"/><path class="cls-4" d="M0 30h500v90H0z"/><path class="cls-5" d="M0 40h500v80H0z"/><path class="cls-6" d="M0 50h500v70H0z"/><path class="cls-7" d="M0 60h500v60H0z"/><path d="M0 70h500v50H0z"/><path class="cls-8" d="M0 80h500v40H0z"/><path class="cls-9" d="M0 90h500v30H0z"/><path class="cls-10" d="M0 100h500v20H0z"/><path class="cls-11" d="M0 110h500v10H0z"/></g><g id="Layer_1" data-name="Layer 1"><path class="cls-12" d="M0 0h500v120H0z"/><path class="cls-13" d="M305.66 120h-122L194.34 0h122l-10.68 120z"/><path class="cls-14" d="M191.92 1.92h116.16v116.16H191.92z"/><path class="cls-15" d="M250 17.35A42.65 42.65 0 1 0 292.65 60 42.67 42.67 0 0 0 250 17.35z"/><path class="cls-16" d="M199.94 50.32h12.48v17.85h-12.48zM288.04 50.32h11.87v17.85h-11.87z"/><path class="cls-17" d="M245.62 73.14h8.76v8.76h-8.76zM245.62 38.11h8.76v26.27h-8.76z"/></g></svg>